<?xml version="1.0" encoding="utf-8"?>
<!-- Generator: Adobe Illustrator 24.3.0, SVG Export Plug-In . SVG Version: 6.00 Build 0)  -->
<svg version="1.1" id="Layer_1" focusable="false" xmlns="http://www.w3.org/2000/svg" xmlns:xlink="http://www.w3.org/1999/xlink"
	 x="0px" y="0px" viewBox="0 0 512 512" style="enable-background:new 0 0 512 512;" xml:space="preserve">
<g>
	<g>
		<g>
			<path d="M408.7,172c-13.5,0-24.5,9.6-24.5,21.4v125.4c0,11.8,11,21.4,24.5,21.4s24.5-9.6,24.5-21.4V193.3
				C433.2,181.5,422.2,172,408.7,172z"/>
		</g>
	</g>
	<g>
		<g>
			<path d="M332.8,105.7c-13.5,0-24.5,9.6-24.5,21.4v257.8c0,11.8,11,21.4,24.5,21.4c13.5,0,24.5-9.6,24.5-21.4V127.1
				C357.3,115.3,346.3,105.7,332.8,105.7z"/>
		</g>
	</g>
	<g>
		<g>
			<path d="M256,43.8c-13.5,0-24.5,9.6-24.5,21.4v381.8c0,11.8,11,21.4,24.5,21.4c13.5,0,24.5-9.6,24.5-21.4V65.1
				C280.5,53.3,269.5,43.8,256,43.8z"/>
		</g>
	</g>
	<g>
		<g>
			<path d="M180.1,105.7c-13.5,0-24.5,9.6-24.5,21.4v257.8c0,11.8,11,21.4,24.5,21.4s24.5-9.6,24.5-21.4V127.1
				C204.6,115.3,193.6,105.7,180.1,105.7z"/>
		</g>
	</g>
	<g>
		<g>
			<path d="M103.3,167.7c-13.5,0-24.5,9.6-24.5,21.4V323c0,11.8,11,21.4,24.5,21.4s24.5-9.6,24.5-21.4V189
				C127.8,177.2,116.8,167.7,103.3,167.7z"/>
		</g>
	</g>
</g>
</svg>
